<svg xmlns="http://www.w3.org/2000/svg" focusable="false" role="img" fill="currentColor" viewBox="0 0 20 20" aria-hidden="true" class="css-1pzef2i eac13zx0" style="height: 1.25rem; width: 1.25rem;"><path fill-rule="evenodd" d="M10 2a8 8 0 100 16 8 8 0 000-16zm0 5.497a1.25 1.25 0 00-1.152.763c-.107.254-.322.487-.598.487h-.5c-.276 0-.505-.226-.455-.498a2.752 2.752 0 015.455.498c0 .779-.369 1.326-.765 1.714-.19.186-.399.349-.608.511-.162.126-.324.251-.477.387a.538.538 0 01-.357.142H9.75c-.276 0-.507-.231-.412-.49.137-.374.42-.687.736-.94.088-.072.192-.144.3-.22.405-.281.876-.609.876-1.104A1.25 1.25 0 0010 7.497zM9.25 13.5a.5.5 0 01.5-.5h.5a.5.5 0 01.5.5v1a.5.5 0 01-.5.5h-.5a.5.5 0 01-.5-.5v-1z" clip-rule="evenodd"></path></svg>