<svg width="180" height="180" viewBox="0 0 180 180" fill="none" xmlns="http://www.w3.org/2000/svg">
<g clip-path="url(#clip0)">
<path d="M8.08989 104.326H0V75H14.1573L31.3483 97.2472V75H40.4494V104.326H25.2809L8.08989 82.0787V104.326ZM81.9101 95.2247C81.9101 99.2697 80.8989 101.292 79.8876 102.303C77.8652 104.326 75.8427 105.337 69.7753 105.337H55.618C50.5618 105.337 47.5281 104.326 45.5056 102.303C44.4944 101.292 43.4831 99.2697 43.4831 95.2247V84.1011C43.4831 80.0562 44.4944 78.0337 45.5056 77.0225C47.5281 75 50.5618 75 55.618 75H69.7753C75.8427 75 77.8652 75 79.8876 77.0225C80.8989 78.0337 81.9101 80.0562 81.9101 84.1011V95.2247ZM69.7753 97.2472C71.7978 97.2472 72.809 97.2472 72.809 97.2472C73.8202 96.236 73.8202 96.236 73.8202 94.2135V85.1124C73.8202 83.0899 73.8202 83.0899 72.809 82.0787C72.809 82.0787 71.7978 82.0787 69.7753 82.0787H55.618C53.5955 82.0787 53.5955 82.0787 52.5843 82.0787C52.5843 83.0899 51.573 83.0899 51.573 85.1124V94.2135C51.573 96.236 52.5843 96.236 52.5843 97.2472C53.5955 97.2472 53.5955 97.2472 55.618 97.2472H69.7753ZM94.0449 75V104.326H84.9438V75H94.0449ZM109.213 75H121.348L105.169 89.1573L123.371 104.326H111.236L94.0449 89.1573L109.213 75ZM125.393 75H134.494V104.326H125.393V75ZM168.876 104.326L165.843 99.2697H148.652L146.629 104.326H136.517L151.685 75H163.82L180 104.326H168.876ZM151.685 93.2022H162.809L157.753 82.0787L151.685 93.2022Z" fill="#1C4598"/>
</g>
<defs>
<clipPath id="clip0">
<path d="M0 0H180V180H0V0Z" fill="white"/>
</clipPath>
</defs>
</svg>
