<svg xmlns="http://www.w3.org/2000/svg" focusable="false" role="img" fill="currentColor" viewBox="0 0 24 24" aria-hidden="true" class="css-16yzo4g eac13zx0"><path fill-rule="evenodd" d="M12 16.249l4.157 2.51-1.103-4.73 3.675-3.184-4.834-.41L12 5.965l-1.895 4.47-4.834.41 3.675 3.184-1.103 4.73L12 16.248zm-6.124 6.145a.593.593 0 01-.884-.642l1.625-6.967-5.412-4.688a.593.593 0 01.339-1.04l7.124-.604 2.786-6.573a.593.593 0 011.092 0l2.786 6.573 7.124.605a.593.593 0 01.338 1.039l-5.411 4.688 1.625 6.967a.593.593 0 01-.883.642L12 18.698l-6.124 3.696z" clip-rule="evenodd"></path></svg>