<svg xmlns="http://www.w3.org/2000/svg" viewBox="0 0 117 67" aria-hidden="true" data-testid="ipl-illustration-spot"><style></style><defs><linearGradient id="spot-rating-4_svg__spot-rating-4__paint0_linear_3456_2173" x1="81.341" x2="108.378" y1="40.555" y2="82.904" gradientUnits="userSpaceOnUse"><stop stop-color="#DC6F34"></stop><stop offset="1" stop-color="#B4602B"></stop></linearGradient><clipPath id="spot-rating-4_svg__spot-rating-4__svgClip"><path xmlns="http://www.w3.org/2000/svg" id="spot-rating-4_svg__spot-rating-4__Mask" fill="#fff" d="M116.676 66.042H84.003l.02.07H31.849l-.009-.07H.271s.41-11.416 9.671-16.624A31.068 31.068 0 014.59 31.941C4.59 14.64 18.69.613 36.084.613a31.512 31.512 0 0127.646 16.31l13.925.034c.108 6.315.424 12.122.886 17.44 1.918-.447 2.203.335 2.203.335.888-.587 2.523-.525 4.007-.296 1.661.256 3.113.715 3.113.715 3.343 1.94 11.083 4.069 12.137 4.153.695.056 1.098 1.265 1.217 3.03 9.623 5.715 16.449 14.772 15.458 23.708z"></path></clipPath><pattern id="spot-rating-4_svg__spot-rating-4__texture" width="38" height="32" x="0" y="0" patternTransform="scale(.3)" patternUnits="userSpaceOnUse"><path d="M10 0h1v1h-1V0zm8 0h1v1h-1V0zm15 0h1v1h-1V0zm10 1h1v1h-1V1zm27 0h1v1h-1V1zM6 1h1v1H6V1zm23 0h1v1h-1V1zm2 0h1v1h-1V1zm25 0h1v1h-1V1zm19 0h1v1h-1V1zM3 1h1v1H3V1zm4 1h1v1H7V2zm16 0h1v1h-1V2zm14 0h1v1h-1V2zm8 0h1v1h-1V2zm8 0h1v1h-1V2zm5 0h1v1h-1V2zm10 0h1v1h-1V2zM1 3h1v1H1V3zm3 0h1v1H4V3zm4 0h2v1H8V3zm6 0h1v1h-1V3zm2 0h1v1h-1V3zm9 0h1v1h-1V3zm2 0h2v1h-2V3zm9 0h2v1h-2V3zm6 1h1v1h-1V4zm8 0h1v1h-1V4zm11 0h1v1h-1V4zm4 0h1v1h-1V4zM21 4h1v1h-1V4zm9 0h1v1h-1V4zm7 0h1v1h-1V4zm9 0h1v1h-1V4zm13 1h1v1h-1V5zm11 0h1v1h-1V5zm4 0h1v1h-1V5zM4 5h1v1H4V5zm3 0h1v1H7V5zm5 0h1v1h-1V5zm28 0h1v1h-1V5zm15 1h2v1h-2V6zm10 0h1v1h-1V6zm10 0h1v1h-1V6zM1 6h1v1H1V6zm8 0h1v1H9V6zm16 0h1v1h-1V6zm8 0h1v1h-1V6zm12 0h1v1h-1V6zm2 1h1v1h-1V7zm3 0h1v1h-1V7zm2 0h1v2h-1V7zm3 0h1v1h-1V7zm4 0h1v1h-1V7zM6 7h1v1H6V7zm12 0h1v1h-1V7zm1 0h2v1h-2V7zm7 0h1v1h-1V7zm3 1h1v2h-1V8zm38 0h1v1h-1V8zm7 0h1v1h-1V8zM3 8h1v1H3V8zm4 0h1v1H7V8zm4 0h1v1h-1V8zm4 0h1v1h-1V8zm9 1h1v1h-1V9zm24 0h1v1h-1V9zm3 0h1v1h-1V9zm2 0h1v1h-1V9zm2 0h1v1h-1V9zm13 0h1v1h-1V9zm2 0h1v1h-1V9zm5 1h1v1h-1v-1zm-57 0h1v1h-1v-1zm9 0h1v1h-1v-1zm39 0h1v1h-1v-1zm5 0h2v1h-2v-1zm6 0h2v1h-2v-1zm-65 0h1v1h-1v-1zm4 1h1v1h-1v-1zm12 0h1v1h-1v-1zm3 0h1v1h-1v-1zm1 0h1v1h-1v-1zm9 0h1v1h-1v-1zm3 0h1v1h-1v-1zm2 0h1v1h-1v-1zm12 1h1v2h-1v-2zm5-1h1v1h-1v-1zM6 12h1v1H6v-1zm4 0h1v1h-1v-1zm4 0h1v1h-1v-1zm7 0h1v1h-1v-1zm2 0h1v1h-1v-1zm31 0h1v1h-1v-1zm12 0h1v1h-1v-1zm11 1h1v1h-1v-1zM1 13h1v1H1v-1zm12 0h1v1h-1v-1zm4 0h1v1h-1v-1zm7 0h1v1h-1v-1zm19 0h1v1h-1v-1zm19 0h1v1h-1v-1zm8 1h1v1h-1v-1zM2 14h1v1H2v-1zm20 0h1v1h-1v-1zm4 0h1v1h-1v-1zm5 0h2v1h-2v-1zm10 0h1v1h-1v-1zm-2-2h1v1h-1v-1zm7 2h1v1h-1v-1zm3 0h1v1h-1v-1zm1 1h2v1h-2v-1zm19 0h1v1h-1v-1zm-58 0h1v1h-1v-1zm3 0h1v1h-1v-1zm13 0h2v1h-2v-1zm9 0h1v1h-1v-1zm1-7h1v1h-1V8zm7 7h1v1h-1v-1zm10 1h1v2h-1v-2zm6 0h1v2h-1v-2zm5-1h2v1h-2v-1zm8 1h1v1h-1v-1zM5 16h1v2H5v-2zm8 0h1v1h-1v-1zm35 1h1v2h-1v-2zm4-1h1v1h-1v-1zm4 0h1v1h-1v-1zM2 16h1v1H2v-1zm17 1h1v1h-1v-1zm8 0h1v2h-1v-2zm6 0h1v1h-1v-1zm28 0h2v1h-2v-1zM3 17h1v1H3v-1zm11 0h1v1h-1v-1zm2 0h1v1h-1v-1zm8 1h1v1h-1v-1zm12 0h1v1h-1v-1zm13 0h1v1h-1v-1zm17 0h1v1h-1v-1zm2 0h2v1h-2v-1zm8 0h2v1h-2v-1zM5 18h1v1H5v-1zm6 1h1v1h-1v-1zm15 0h1v1h-1v-1zm32 0h1v1h-1v-1zm2 0h1v1h-1v-1zm13 0h1v1h-1v-1zm-56 0h1v1h-1v-1zm3 0h1v1h-1v-1zm9 1h1v1h-1v-1zm7 0h1v1h-1v-1zm6 0h1v1h-1v-1zm20 0h1v1h-1v-1zm3 0h1v1h-1v-1zm11 0h1v1h-1v-1zM6 20h2v1H6v-1zm6 0h1v1h-1v-1zm23 1h1v1h-1v-1zm11 0h1v1h-1v-1zm7 0h1v1h-1v-1zm11 0h1v1h-1v-1zm7 0h1v1h-1v-1zM5 21h1v1H5v-1zm10 0h1v1h-1v-1zm4 1h1v1h-1v-1zm17 0h1v1h-1v-1zm3 0h1v1h-1v-1zm3 0h1v1h-1v-1zm34 0h1v1h-1v-1zM9 22h1v1H9v-1zm43 0h1v1h-1v-1zm8 0h1v1h-1v-1zm1 1h1v1h-1v-1zm3 0h1v1h-1v-1zm4 0h1v1h-1v-1zM2 24h1v2H2v-2zm27-1h1v1h-1v-1zm6 0h1v1h-1v-1zm5 0h2v1h-2v-1zm6 0h1v1h-1v-1zm11 0h1v1h-1v-1zm15 1h1v1h-1v-1zM4 24h1v1H4v-1zm15 0h1v1h-1v-1zm11 0h1v1h-1v-1zm9 0h1v1h-1v-1zm29 0h1v1h-1v-1zM7 25h1v1H7v-1zm4 0h1v1h-1v-1zm3 0h1v1h-1v-1zm10 0h1v1h-1v-1zm11 0h1v1h-1v-1zm8 1h1v2h-1v-2zm18-1h2v1h-2v-1zm9 0h1v1h-1v-1zm5 0h1v1h-1v-1zm2 1h1v1h-1v-1zm-62 0h1v1h-1v-1zm5 0h1v1h-1v-1zm2 0h1v1h-1v-1zm24 0h1v1h-1v-1zm12 0h1v1h-1v-1zm3 0h1v1h-1v-1zm7 1h1v1h-1v-1zm3 0h1v1h-1v-1zM9 27h1v1H9v-1zm18 0h1v1h-1v-1zm9 0h1v1h-1v-1zm3 0h2v1h-2v-1zm10 0h1v1h-1v-1zm3 1h1v1h-1v-1zm5 0h1v1h-1v-1zm12 0h1v1h-1v-1zm7 0h2v1h-2v-1zM3 28h1v1H3v-1zm20 0h1v1h-1v-1zm3 0h1v1h-1v-1zm2 0h1v1h-1v-1zm19 1h1v1h-1v-1zm13 0h1v1h-1v-1zm1 0h1v1h-1v-1zm10 0h1v1h-1v-1zM8 29h1v1H8v-1zm8 0h2v1h-2v-1zm5 0h1v1h-1v-1zm4 1h1v1h-1v-1zm7 0h1v1h-1v-1zm3 0h1v1h-1v-1zm3 0h1v1h-1v-1zm3 0h1v1h-1v-1zm4 1h1v2h-1v-2zm8 0h1v2h-1v-2zm2-1h1v1h-1v-1zm14 0h1v1h-1v-1zM1 30h1v1H1v-1zm10 1h1v1h-1v-1z" fill-rule="evenodd" clip-rule="evenodd" fill="#404040"></path><path d="M11 31h2v1h-2v-1zm7 0h1v1h-1v-1zm18 0h1v1h-1v-1zm6 0h1v1h-1v-1zm5 0h1v1h-1v-1zm12 1h1v1h-1v-1zm4 0h1v1h-1v-1z" fill-rule="evenodd" clip-rule="evenodd" fill="#404040"></path><path d="M63 32h2v1h-2v-1zm9 0h1v1h-1v-1zm5 0h1v1h-1v-1zM8 33h1v2H8v-2zm11-1h1v1h-1v-1zm23 0h1v1h-1v-1zm31 1h1v1h-1v-1zm-49 0h1v1h-1v-1zm6 0h1v1h-1v-1zm13 0h1v1h-1v-1zm6 0h1v1h-1v-1zm4 0h1v1h-1v-1zm18 0h1v1h-1v-1zm-46 1h1v2h-1v-2zm10 0h1v1h-1v-1zm15 0h1v1h-1v-1zm12 0h1v1h-1v-1zm-52 0h1v1h-1v-1zm4 1h1v2h-1v-2zm17-1h1v1h-1v-1zm8 0h1v1h-1v-1zm12 0h1v1h-1v-1zm6 1h1v2h-1v-2zm4-1h1v1h-1v-1zm8 1h1v2h-1v-2zm3 0h1v1h-1v-1zm4 0h1v1h-1v-1zm-64 0h1v1h-1v-1zm10 0h1v1h-1v-1zm2 0h1v1h-1v-1zm40 1h1v1h-1v-1zm-19 0h1v1h-1v-1zm4 0h1v1h-1v-1zm3 0h1v1h-1v-1zm14 0h1v1h-1v-1zm8 0h1v1h-1v-1zM2 37h1v1H2v-1zm31 0h1v1h-1v-1zm2 0h1v1h-1v-1zm4 0h1v1h-1v-1zm25 0h1v1h-1v-1zm7 0h1v1h-1v-1zM5 37h1v1H5v-1zm6 0h1v1h-1v-1zm4 2h1v2h-1v-2zm30-1h1v1h-1v-1zm6 0h2v1h-2v-1zm12 0h1v1h-1v-1zm4 0h1v1h-1v-1zm5 0h1v1h-1v-1zm4 0h1v1h-1v-1zM7 38h1v1H7v-1zm6 1h1v1h-1v-1zm5 0h1v1h-1v-1zm4 0h1v1h-1v-1zm4 0h1v1h-1v-1zm5 0h1v1h-1v-1zm1 0h1v1h-1v-1zm18 1h1v2h-1v-2zm8-1h2v1h-2v-1zm-30 1h1v1h-1v-1zm10 0h1v1h-1v-1zm1 0h1v1h-1v-1zm3 0h1v1h-1v-1zm12 0h1v1h-1v-1zm2 0h1v1h-1v-1zm12 1h1v1h-1v-1zm-58 0h1v1h-1v-1zm15 0h1v1h-1v-1zm7 0h1v1h-1v-1zm2 0h1v1h-1v-1zm4 0h1v1h-1v-1zm15 0h1v1h-1v-1zm2 0h1v1h-1v-1zM2 42h1v1H2v-1zm11 0h1v1h-1v-1zm7 1h1v2h-1v-2zm2-1h1v1h-1v-1zm8 0h1v1h-1v-1zm3 0h1v1h-1v-1zm14 0h1v1h-1v-1zm9 0h1v1h-1v-1zm10 0h1v1h-1v-1zm5 1h1v1h-1v-1zm3 0h1v1h-1v-1zM4 43h1v1H4v-1zm19 0h1v1h-1v-1zm11 0h1v1h-1v-1zm4 0h1v1h-1v-1zm2 0h1v1h-1v-1zm18 1h1v1h-1v-1zm2 0h2v1h-2v-1zm7 0h1v1h-1v-1zm6 0h1v1h-1v-1zM8 44h1v1H8v-1zm4 0h3v1h-3v-1zm6 0h1v1h-1v-1zm10 1h1v1h-1v-1zm9 0h1v1h-1v-1zm10 0h1v2h-1v-2zm2 0h1v1h-1v-1zm6 0h1v1h-1v-1zm22 0h1v1h-1v-1zM1 45h1v1H1v-1z" fill-rule="evenodd" clip-rule="evenodd" fill="#404040"></path><path d="M28 45h1v1h-1v-1zm29 0h1v1h-1v-1zm2 1h1v1h-1v-1zm-43 0h2v1h-2v-1zm4 0h1v1h-1v-1zm3 0h1v1h-1v-1zm11 0h1v1h-1v-1zm7 1h1v2h-1v-2zm1 0h2v2h-1v-1h-1v-1zm20-1h1v1h-1v-1zm5 1h1v1h-1v-1zm6 0h2v2h-1v-1h-1v-1zM4 47h1v1H4v-1zm22 0h1v1h-1v-1zm11 0h2v1h-2v-1zm11 0h1v1h-1v-1zm3 0h1v1h-1v-1zm12 1h1v1h-1v-1zm3 0h1v1h-1v-1zM6 48h1v1H6v-1zm3 0h2v1H9v-1zm10 0h1v1h-1v-1zm11 0h1v1h-1v-1zm1 1h1v1h-1v-1zm6 0h1v1h-1v-1zm14 0h1v2h-1v-2zm4 0h1v1h-1v-1zM3 49h1v1H3v-1zm5 0h1v1H8v-1zm5 0h1v1h-1v-1zm4 0h1v1h-1v-1zm4 0h1v1h-1v-1zm23 1h1v1h-1v-1zm10 0h1v1h-1v-1zm13 0h1v1h-1v-1zm3 0h1v1h-1v-1zm-60 0h1v1h-1v-1zm19 1h1v2h-1v-2zm9-1h1v1h-1v-1zm14 0h1v1h-1v-1zm17 1h1v1h-1v-1zm-49 1h1v2h-1v-2zm8-1h1v1h-1v-1zm6 0h1v1h-1v-1zm7 0h1v1h-1v-1zm7 0h1v1h-1v-1zm9 1h1v2h-1v-2zm6-1h1v1h-1v-1zM8 52h1v1H8v-1zm15 0h1v1h-1v-1zm17 0h1v1h-1v-1zm4 0h1v1h-1v-1zm16 0h1v1h-1v-1zm13 0h1v1h-1v-1zm4 1h1v1h-1v-1zM2 53h1v1H2v-1zm3 0h1v1H5v-1zm4 0h1v1H9v-1zm6 0h1v1h-1v-1zm16 0h1v1h-1v-1zm8 0h1v1h-1v-1zm8 0h1v1h-1v-1zm11 1h1v1h-1v-1zm16 0h1v1h-1v-1zM6 54h1v1H6v-1zm10 0h1v1h-1v-1zm21 0h1v1h-1v-1zm8 0h1v1h-1v-1zm20 0h1v1h-1v-1zM8 55h1v1H8v-1zm3 2h1v1h-1v-1zm1-2h1v1h-1v-1zm9 0h1v1h-1v-1zm8 0h1v1h-1v-1zm3 0h1v2h-1v-2zm2 0h1v1h-1v-1zm20 0h1v2h-1v-2zM4 55h1v1H4v-1zm11 0h1v1h-1v-1zm29 0h1v1h-1v-1zm31 1h1v2h-1v-2zM3 56h1v1H3v-1zm-1 2h1v1H2v-1zm3-2h1v1H5v-1zm2 2h1v1H7v-1zm0-2h1v1H7v-1zm12 0h1v1h-1v-1zm2 0h1v1h-1v-1zm6 0h1v1h-1v-1zm3 1h1v1h-1v-1zm9 0h2v1h-2v-1zm4 0h1v1h-1v-1zm8 0h1v1h-1v-1zm3 0h1v1h-1v-1zm19 0h1v1h-1v-1zm-57 1h1v1h-1v-1zm6 0h1v1h-1v-1zm26 0h1v1h-1v-1zm15 0h1v1h-1v-1zm2 0h1v1h-1v-1zm-48 0h1v1h-1v-1zm17 0h1v1h-1v-1zm10 0h1v1h-1v-1zm6 1h1v1h-1v-1zm7 0h1v1h-1v-1zm2 0h1v1h-1v-1zm3 0h1v1h-1v-1zm5 0h1v1h-1v-1zm8 0h1v1h-1v-1z" fill-rule="evenodd" clip-rule="evenodd" fill="#404040"></path></pattern><filter id="spot-rating-4_svg__spot-rating-4__filter0_di_3456_2173" width="42.37" height="19.407" x="64.681" y="38.662" color-interpolation-filters="sRGB" filterUnits="userSpaceOnUse"><feFlood flood-opacity="0" result="BackgroundImageFix"></feFlood><feColorMatrix in="SourceAlpha" result="hardAlpha" values="0 0 0 0 0 0 0 0 0 0 0 0 0 0 0 0 0 0 127 0"></feColorMatrix><feOffset dx="1" dy="1"></feOffset><feGaussianBlur stdDeviation="0.5"></feGaussianBlur><feColorMatrix values="0 0 0 0 0 0 0 0 0 0 0 0 0 0 0 0 0 0 0.3 0"></feColorMatrix><feBlend in2="BackgroundImageFix" result="effect1_dropShadow_3456_2173"></feBlend><feBlend in="SourceGraphic" in2="effect1_dropShadow_3456_2173" result="shape"></feBlend><feColorMatrix in="SourceAlpha" result="hardAlpha" values="0 0 0 0 0 0 0 0 0 0 0 0 0 0 0 0 0 0 127 0"></feColorMatrix><feOffset dx="1" dy="1"></feOffset><feGaussianBlur stdDeviation="0.5"></feGaussianBlur><feComposite in2="hardAlpha" k2="-1" k3="1" operator="arithmetic"></feComposite><feColorMatrix values="0 0 0 0 0 0 0 0 0 0 0 0 0 0 0 0 0 0 0.3 0"></feColorMatrix><feBlend in2="shape" result="effect2_innerShadow_3456_2173"></feBlend></filter></defs><g id="spot-rating-4_svg__spot-rating-4__Group" clip-path="url(#spot-rating-4_svg__spot-rating-4__svgClip)"><path id="spot-rating-4_svg__spot-rating-4__Union" fill="#B9DAD0" d="M66.641 39.557a31.24 31.24 0 00.937-7.616c0-17.302-14.1-31.328-31.494-31.328S4.59 14.639 4.59 31.94a31.068 31.068 0 005.352 17.477C.68 54.626.27 66.042.27 66.042h116.405c1.8-16.24-22.22-32.886-41.929-29.13-3.29.628-5.902 1.56-8.106 2.645z"></path><path id="spot-rating-4_svg__spot-rating-4__Vector" fill="#fff" d="M31.848 66.113h52.174c-2.94-10.452-5.978-26.546-6.368-49.156l-50.488-.125s1.742 21.182 3.289 36.5c.627 6.196 1.073 10.188 1.393 12.78z"></path><path id="spot-rating-4_svg__spot-rating-4__Union_2" fill="#203B61" d="M62.87 22.794a.174.174 0 00-.331.004l-.881 2.783a.174.174 0 01-.164.12l-2.953.034a.173.173 0 00-.098.315l2.407 1.681a.172.172 0 01.065.194l-.88 2.778c-.05.16.134.29.27.19l2.372-1.74a.174.174 0 01.203-.003l2.412 1.686c.138.096.319-.039.264-.197l-.944-2.757a.172.172 0 01.061-.195l2.367-1.737a.173.173 0 00-.106-.311l-2.953.034a.174.174 0 01-.166-.117l-.946-2.762zm-23.08.006a.174.174 0 01.33-.005l.946 2.762c.024.07.091.117.167.117l2.952-.034c.17-.002.241.212.106.311l-2.367 1.737a.172.172 0 00-.061.195l.944 2.757c.055.158-.126.293-.264.197l-2.412-1.686a.175.175 0 00-.203.003l-2.372 1.74c-.136.1-.32-.03-.27-.19l.88-2.778a.172.172 0 00-.065-.194l-2.407-1.681a.173.173 0 01.098-.314l2.953-.035c.075 0 .141-.05.164-.12l.881-2.783zm11.429 0a.174.174 0 01.33-.005l.946 2.762c.024.07.091.117.166.117l2.953-.034a.172.172 0 01.105.311l-2.366 1.737a.172.172 0 00-.062.195l.945 2.757c.054.158-.127.293-.264.197l-2.413-1.686a.174.174 0 00-.203.003l-2.372 1.74c-.135.1-.32-.03-.269-.19l.88-2.778a.172.172 0 00-.066-.194l-2.406-1.681a.173.173 0 01.098-.314l2.953-.035c.075 0 .14-.05.163-.12l.882-2.783zm4.905 20.649l-18.785.113c.049.422.111.841.174 1.26.062.42.125.838.174 1.26l18.743-.112c-.043-.369-.089-.737-.135-1.109-.058-.465-.117-.934-.17-1.412zM36.92 38.62l21.037-.162.145 2.195-20.978.162-.204-2.194v-.001z"></path><path id="spot-rating-4_svg__spot-rating-4__Vector_2" fill="#B4602B" d="M84.963 42.9c-1.552-1.263-5.159-3.704-5.159-3.704s-1.93.352-6.733 1.613c-.591.158-1.124.266-1.624.322.074.445.255.761.584.788 1.26.1 8.225-1.151 8.225-1.151l-2.029 4.458 5.9 2.035s1.768-1.065 2.701-2.375c-.413-.691-1.102-1.377-1.865-1.986z"></path><path id="spot-rating-4_svg__spot-rating-4__Intersect" fill="url(#spot-rating-4_svg__spot-rating-4__paint0_linear_3456_2173)" d="M109.456 66.04h-17.45l-1.952-2.784S76.042 52.796 72.64 50.879c-2.848-1.607-2.703-3.165-2.612-4.147.018-.191.034-.36.025-.503-.022-.3-.348-.774-.715-1.306-.731-1.063-1.62-2.355-.554-2.936 1.602-.887 4.85 1.389 5.768 2.477.918 1.088 4.805 3.292 7.658 4.15 2.852.86 3.823-.063 4.699-1.515.875-1.452-.397-2.938-1.948-4.2-1.552-1.263-5.159-3.704-5.159-3.704s-1.931.366-6.733 1.613c-4.8 1.247-6.155-.754-6.354-1.524-.123-.472 2.122-1.28 4.758-2.227 1.665-.6 3.485-1.254 4.963-1.916 3.833-1.709 4.306-.41 4.306-.41.889-.586 2.524-.524 4.008-.295 1.66.256 3.112.715 3.112.715 3.344 1.94 11.083 4.069 12.138 4.153 1.054.085 1.438 2.83 1.17 6.14-.267 3.31 1.577 12.535 1.577 12.535l6.708 8.062z"></path><path id="spot-rating-4_svg__spot-rating-4__Vector_3" fill="#203B61" d="M65.635 38.664l-2.92-.226 1.966 2.303.954-2.077z"></path><g id="spot-rating-4_svg__spot-rating-4__Subtract" filter="url(#spot-rating-4_svg__spot-rating-4__filter0_di_3456_2173)"><path fill="#B1ABF4" d="M65.635 38.662l39.416 15.373-1.667 2.033-28.533-11.302c-.12-.108-.22-.21-.299-.302-.918-1.088-4.166-3.364-5.767-2.478a1.037 1.037 0 00-.315.253l-3.789-1.5.954-2.077z"></path></g><path id="spot-rating-4_svg__spot-rating-4__Vector_4" fill="#fff" d="M104.736 55.57c.526-.512.732-1.15.461-1.425-.27-.275-.916-.083-1.442.43-.526.512-.732 1.15-.461 1.425.27.275.916.083 1.442-.43z"></path><path fill="url(#spot-rating-4_svg__spot-rating-4__texture)" d="M116.676 66.042H84.003l.02.07H31.849l-.009-.07H.271s.41-11.416 9.671-16.624A31.068 31.068 0 014.59 31.941C4.59 14.64 18.69.613 36.084.613a31.512 31.512 0 0127.646 16.31l13.925.034c.108 6.315.424 12.122.886 17.44 1.918-.447 2.203.335 2.203.335.888-.587 2.523-.525 4.007-.296 1.661.256 3.113.715 3.113.715 3.343 1.94 11.083 4.069 12.137 4.153.695.056 1.098 1.265 1.217 3.03 9.623 5.715 16.449 14.772 15.458 23.708z" style="mix-blend-mode:overlay" opacity="0.45"></path></g></svg>