<svg height="598" viewBox="0 0 652 598" width="652" xmlns="http://www.w3.org/2000/svg"><path d="m9 1h634c4.418278 0 8 3.581722 8 8v592h-650v-592c0-4.418278 3.581722-8 8-8z" fill="#fff"/><path d="m650 600v-592c0-3.3137085-2.686292-6-6-6h-636c-3.3137085 0-6 2.6862915-6 6v592h-2v-592c0-4.418278 3.581722-8 8-8h636c4.418278 0 8 3.581722 8 8v592z" fill="#ececec"/><rect fill="#f60" height="45" rx="8" width="136" x="48" y="150"/><rect fill="#fff" height="5" opacity=".2" rx="1" width="74" x="79" y="170"/><rect fill="#666" height="8" opacity=".5" rx="3" width="200" x="48" y="274.5"/><g fill="#b2b2b2"><rect height="8" opacity=".3" rx="3" width="520" x="48" y="302.8"/><rect height="8" opacity=".3" rx="3" width="460" x="48" y="321.6"/><rect height="8" opacity=".3" rx="3" width="472" x="48" y="340.4"/></g><rect fill="#666" height="8" opacity=".5" rx="3" width="200" x="48" y="398.5"/><g fill="#b2b2b2"><rect height="8" opacity=".3" rx="3" width="520" x="48" y="426.8"/><rect height="8" opacity=".3" rx="3" width="460" x="48" y="445.6"/><rect height="8" opacity=".3" rx="3" width="472" x="48" y="464.4"/></g><rect fill="#666" height="8" opacity=".5" rx="3" width="200" x="48" y="526.5"/><rect fill="#b2b2b2" height="8" opacity=".3" rx="3" width="520" x="48" y="554.8"/><rect fill="#b2b2b2" height="8" opacity=".3" rx="3" width="460" x="48" y="573.6"/><rect fill="#b2b2b2" height="8" opacity=".3" rx="3" width="472" x="48" y="592.4"/><rect fill="#2164f3" height="22" rx="2" width="460" x="48" y="48"/><rect fill="#2164f3" height="8" rx="3" width="350" x="48" y="82"/></svg>